<svg xmlns="http://www.w3.org/2000/svg" viewBox="0 0 320 300" shape-rendering="crispEdges"><rect x="40" y="140" width="240" height="100" fill="#3DD6B0"/><rect x="50" y="240" width="30" height="40" fill="#3DD6B0"/><rect x="100" y="240" width="30" height="40" fill="#3DD6B0"/><rect x="190" y="240" width="30" height="40" fill="#3DD6B0"/><rect x="240" y="240" width="30" height="40" fill="#3DD6B0"/><rect x="80" y="110" width="50" height="30" fill="#3DD6B0"/><rect x="60" y="80" width="50" height="30" fill="#3DD6B0"/><rect x="40" y="50" width="50" height="30" fill="#3DD6B0"/><rect x="30" y="30" width="30" height="20" fill="#3DD6B0"/><rect x="190" y="110" width="50" height="30" fill="#3DD6B0"/><rect x="210" y="80" width="50" height="30" fill="#3DD6B0"/><rect x="230" y="50" width="50" height="30" fill="#3DD6B0"/><rect x="260" y="30" width="30" height="20" fill="#3DD6B0"/><rect x="80" y="160" width="40" height="40" fill="#000000"/><rect x="200" y="160" width="40" height="40" fill="#000000"/></svg>